<svg width="1146" height="296" viewBox="0 0 1146 296" fill="none" xmlns="http://www.w3.org/2000/svg">
<path fill-rule="evenodd" clip-rule="evenodd" d="M186.088 148.907C181.572 166.24 187.312 184.268 178.914 200.093C166.234 223.987 154.423 254.874 127.662 259.003C100.014 263.269 76.7426 239.249 57.6819 218.797C39.4526 199.238 27.0635 175.553 25.0546 148.907C22.8664 119.884 26.6002 89.0967 46.2853 67.6348C66.638 45.4452 97.5499 38.0944 127.662 37.038C159.084 35.9357 200.425 33.8766 214.965 61.7172C229.701 89.9327 194.112 118.109 186.088 148.907Z" stroke="#AEC2B4" stroke-width="2"/>
<path d="M64.2386 154.5V141.409H71.8324V142.483H65.4339V147.411H71.4297V148.485H65.4339V153.426H71.9602V154.5H64.2386ZM74.6896 154.5V144.682H75.7955V146.19H75.8977C76.0938 145.683 76.4197 145.285 76.8757 144.995C77.3359 144.701 77.8878 144.554 78.5312 144.554C79.2088 144.554 79.7649 144.714 80.1996 145.033C80.6385 145.349 80.9666 145.783 81.1839 146.337H81.267C81.4886 145.792 81.8487 145.359 82.3473 145.04C82.8501 144.716 83.4595 144.554 84.1754 144.554C85.0874 144.554 85.8075 144.842 86.3359 145.417C86.8643 145.988 87.1286 146.823 87.1286 147.923V154.5H85.9908V147.923C85.9908 147.147 85.7926 146.565 85.3963 146.178C85 145.79 84.478 145.596 83.8303 145.596C83.0803 145.596 82.5028 145.826 82.098 146.286C81.6932 146.746 81.4908 147.33 81.4908 148.038V154.5H80.3274V147.82C80.3274 147.156 80.142 146.619 79.7713 146.21C79.4006 145.8 78.8786 145.596 78.2053 145.596C77.7536 145.596 77.3466 145.707 76.9844 145.928C76.6264 146.15 76.343 146.459 76.1342 146.855C75.9297 147.247 75.8274 147.699 75.8274 148.21V154.5H74.6896ZM90.1408 158.182V144.682H91.2466V146.555H91.3809C91.5172 146.261 91.7047 145.96 91.9434 145.653C92.182 145.342 92.4973 145.08 92.8894 144.867C93.2857 144.654 93.7843 144.548 94.3851 144.548C95.1948 144.548 95.9022 144.761 96.5073 145.187C97.1167 145.609 97.5897 146.201 97.9263 146.964C98.2672 147.722 98.4377 148.607 98.4377 149.616C98.4377 150.631 98.2672 151.519 97.9263 152.282C97.5897 153.045 97.1167 153.639 96.5073 154.065C95.9022 154.491 95.199 154.705 94.3979 154.705C93.8056 154.705 93.3091 154.598 92.9086 154.385C92.5123 154.172 92.1905 153.91 91.9434 153.599C91.7005 153.283 91.513 152.977 91.3809 152.678H91.2786V158.182H90.1408ZM91.2658 149.597C91.2658 150.39 91.383 151.093 91.6174 151.707C91.856 152.316 92.1969 152.795 92.6401 153.145C93.0875 153.49 93.6287 153.663 94.2637 153.663C94.9157 153.663 95.4654 153.484 95.9128 153.126C96.3645 152.763 96.7076 152.276 96.9419 151.662C97.1806 151.048 97.2999 150.36 97.2999 149.597C97.2999 148.843 97.1827 148.163 96.9483 147.558C96.7182 146.953 96.3773 146.474 95.9256 146.12C95.4739 145.762 94.9199 145.583 94.2637 145.583C93.6245 145.583 93.0811 145.756 92.6337 146.101C92.1863 146.442 91.8453 146.915 91.611 147.52C91.3809 148.121 91.2658 148.813 91.2658 149.597ZM102.072 148.364V154.5H100.934V141.409H102.072V146.222H102.174C102.404 145.715 102.76 145.31 103.241 145.008C103.727 144.705 104.341 144.554 105.082 144.554C105.747 144.554 106.331 144.69 106.834 144.963C107.336 145.236 107.729 145.638 108.01 146.171C108.291 146.704 108.432 147.36 108.432 148.14V154.5H107.287V148.21C107.287 147.401 107.062 146.763 106.61 146.299C106.162 145.83 105.557 145.596 104.795 145.596C104.27 145.596 103.804 145.707 103.395 145.928C102.986 146.15 102.662 146.469 102.423 146.887C102.189 147.3 102.072 147.793 102.072 148.364ZM114.17 154.724C113.578 154.724 113.037 154.609 112.547 154.379C112.056 154.144 111.667 153.808 111.377 153.369C111.087 152.925 110.942 152.388 110.942 151.758C110.942 151.272 111.034 150.863 111.217 150.531C111.4 150.198 111.66 149.925 111.997 149.712C112.333 149.499 112.732 149.331 113.192 149.207C113.652 149.084 114.159 148.988 114.713 148.92C115.263 148.852 115.728 148.792 116.107 148.741C116.49 148.69 116.782 148.609 116.983 148.498C117.183 148.387 117.283 148.208 117.283 147.961V147.731C117.283 147.062 117.083 146.536 116.682 146.152C116.286 145.764 115.715 145.57 114.969 145.57C114.262 145.57 113.684 145.726 113.237 146.037C112.794 146.348 112.483 146.714 112.304 147.136L111.223 146.746C111.445 146.21 111.752 145.781 112.144 145.462C112.536 145.138 112.975 144.906 113.461 144.765C113.946 144.62 114.439 144.548 114.937 144.548C115.312 144.548 115.702 144.597 116.107 144.695C116.516 144.793 116.895 144.963 117.245 145.206C117.594 145.445 117.877 145.779 118.095 146.21C118.312 146.636 118.421 147.177 118.421 147.833V154.5H117.283V152.947H117.213C117.076 153.237 116.874 153.518 116.605 153.79C116.337 154.063 116 154.287 115.596 154.462C115.191 154.636 114.716 154.724 114.17 154.724ZM114.324 153.682C114.929 153.682 115.453 153.548 115.896 153.279C116.339 153.011 116.68 152.655 116.919 152.212C117.162 151.764 117.283 151.272 117.283 150.735V149.316C117.198 149.397 117.055 149.469 116.855 149.533C116.659 149.597 116.431 149.655 116.171 149.706C115.915 149.753 115.659 149.793 115.404 149.827C115.148 149.862 114.918 149.891 114.713 149.917C114.159 149.985 113.686 150.092 113.294 150.237C112.902 150.381 112.602 150.582 112.393 150.837C112.184 151.089 112.08 151.413 112.08 151.809C112.08 152.406 112.293 152.868 112.719 153.196C113.145 153.52 113.68 153.682 114.324 153.682ZM125.315 144.682V145.673H120.629V144.682H125.315ZM122.093 142.33H123.237V151.937C123.237 152.346 123.308 152.668 123.448 152.902C123.589 153.132 123.772 153.296 123.998 153.394C124.224 153.488 124.464 153.535 124.72 153.535C124.869 153.535 124.997 153.526 125.104 153.509C125.21 153.488 125.304 153.467 125.385 153.445L125.628 154.474C125.517 154.517 125.381 154.555 125.219 154.589C125.057 154.628 124.857 154.647 124.618 154.647C124.2 154.647 123.798 154.555 123.41 154.372C123.026 154.189 122.711 153.916 122.464 153.554C122.217 153.192 122.093 152.742 122.093 152.205V142.33ZM129.247 148.364V154.5H128.11V141.409H129.247V146.222H129.35C129.58 145.715 129.936 145.31 130.417 145.008C130.903 144.705 131.517 144.554 132.258 144.554C132.923 144.554 133.507 144.69 134.009 144.963C134.512 145.236 134.904 145.638 135.186 146.171C135.467 146.704 135.607 147.36 135.607 148.14V154.5H134.463V148.21C134.463 147.401 134.237 146.763 133.786 146.299C133.338 145.83 132.733 145.596 131.97 145.596C131.446 145.596 130.98 145.707 130.57 145.928C130.161 146.15 129.838 146.469 129.599 146.887C129.365 147.3 129.247 147.793 129.247 148.364ZM138.616 154.5V144.682H139.761V154.5H138.616ZM139.198 142.994C138.964 142.994 138.763 142.915 138.597 142.758C138.431 142.596 138.348 142.402 138.348 142.176C138.348 141.95 138.431 141.759 138.597 141.601C138.763 141.439 138.964 141.358 139.198 141.358C139.433 141.358 139.633 141.439 139.799 141.601C139.965 141.759 140.048 141.95 140.048 142.176C140.048 142.402 139.965 142.596 139.799 142.758C139.633 142.915 139.433 142.994 139.198 142.994ZM149.366 146.836L148.324 147.13C148.222 146.836 148.077 146.57 147.89 146.331C147.702 146.092 147.457 145.903 147.155 145.762C146.856 145.621 146.486 145.551 146.042 145.551C145.378 145.551 144.832 145.709 144.406 146.024C143.98 146.339 143.767 146.746 143.767 147.245C143.767 147.667 143.912 148.01 144.202 148.274C144.496 148.534 144.947 148.741 145.557 148.894L147.04 149.259C147.862 149.459 148.478 149.776 148.887 150.211C149.3 150.646 149.507 151.191 149.507 151.847C149.507 152.401 149.354 152.893 149.047 153.324C148.74 153.754 148.312 154.093 147.762 154.34C147.216 154.583 146.584 154.705 145.863 154.705C144.905 154.705 144.114 154.489 143.492 154.059C142.87 153.624 142.471 152.998 142.297 152.18L143.39 151.911C143.53 152.495 143.805 152.936 144.214 153.234C144.628 153.533 145.171 153.682 145.844 153.682C146.599 153.682 147.202 153.513 147.653 153.177C148.105 152.836 148.331 152.41 148.331 151.898C148.331 151.502 148.199 151.17 147.934 150.901C147.67 150.629 147.27 150.428 146.733 150.3L145.128 149.917C144.276 149.712 143.645 149.388 143.236 148.945C142.827 148.502 142.623 147.952 142.623 147.296C142.623 146.755 142.77 146.28 143.064 145.871C143.358 145.457 143.763 145.134 144.278 144.899C144.794 144.665 145.382 144.548 146.042 144.548C146.942 144.548 147.66 144.752 148.197 145.161C148.738 145.566 149.128 146.124 149.366 146.836ZM155.968 154.705C155.051 154.705 154.259 154.491 153.59 154.065C152.921 153.635 152.403 153.04 152.037 152.282C151.674 151.519 151.493 150.641 151.493 149.648C151.493 148.66 151.674 147.782 152.037 147.015C152.403 146.244 152.908 145.641 153.551 145.206C154.199 144.767 154.947 144.548 155.795 144.548C156.328 144.548 156.841 144.646 157.336 144.842C157.83 145.033 158.273 145.33 158.665 145.73C159.061 146.126 159.375 146.627 159.605 147.232C159.835 147.833 159.95 148.545 159.95 149.367V149.93H152.279V148.926H158.787C158.787 148.295 158.659 147.729 158.403 147.226C158.152 146.719 157.8 146.318 157.348 146.024C156.901 145.73 156.383 145.583 155.795 145.583C155.173 145.583 154.625 145.749 154.152 146.082C153.679 146.414 153.309 146.853 153.04 147.398C152.776 147.944 152.642 148.54 152.637 149.188V149.789C152.637 150.569 152.772 151.251 153.04 151.835C153.313 152.414 153.699 152.864 154.197 153.183C154.696 153.503 155.286 153.663 155.968 153.663C156.432 153.663 156.839 153.59 157.189 153.445C157.542 153.3 157.838 153.107 158.077 152.864C158.32 152.616 158.503 152.346 158.627 152.052L159.707 152.403C159.558 152.817 159.313 153.198 158.972 153.548C158.635 153.897 158.213 154.178 157.706 154.391C157.203 154.6 156.624 154.705 155.968 154.705Z" fill="white"/>
<path fill-rule="evenodd" clip-rule="evenodd" d="M410.897 167.315C405.673 182.064 405.113 198.087 395.538 210.454C386.173 222.55 372.668 230.059 358.293 235.256C343.486 240.609 328.249 241.056 312.518 240.469C290.432 239.644 265.274 245.583 248.509 231.159C231.112 216.191 229.091 190.229 227.492 167.315C225.788 142.899 224.559 116.295 239.121 96.6392C253.635 77.0493 279.795 72.2168 303.129 65.221C325.88 58.3997 348.907 51.7256 372.117 56.7644C397.04 62.1753 428.252 70.1234 436.705 94.2204C445.473 119.214 419.74 142.347 410.897 167.315Z" stroke="#AEC2B4" stroke-width="2" stroke-dasharray="3 5 7 9"/>
<path d="M311.074 155H307.239V141.909H311.304C312.553 141.909 313.62 142.169 314.506 142.689C315.397 143.209 316.079 143.955 316.552 144.926C317.025 145.898 317.261 147.063 317.261 148.423C317.261 149.795 317.018 150.973 316.533 151.957C316.051 152.937 315.348 153.69 314.423 154.214C313.503 154.738 312.386 155 311.074 155ZM308.434 153.926H311.004C312.129 153.926 313.07 153.705 313.829 153.261C314.587 152.818 315.156 152.185 315.536 151.363C315.915 150.54 316.104 149.56 316.104 148.423C316.1 147.293 315.913 146.322 315.542 145.508C315.175 144.694 314.63 144.07 313.906 143.635C313.185 143.2 312.295 142.983 311.234 142.983H308.434V153.926ZM323.892 155.205C322.975 155.205 322.183 154.991 321.514 154.565C320.845 154.135 320.327 153.54 319.96 152.782C319.598 152.019 319.417 151.141 319.417 150.148C319.417 149.16 319.598 148.282 319.96 147.515C320.327 146.744 320.832 146.141 321.475 145.706C322.123 145.267 322.871 145.048 323.719 145.048C324.252 145.048 324.765 145.146 325.259 145.342C325.754 145.533 326.197 145.83 326.589 146.23C326.985 146.626 327.298 147.127 327.529 147.732C327.759 148.333 327.874 149.045 327.874 149.867V150.43H320.203V149.426H326.71C326.71 148.795 326.583 148.229 326.327 147.726C326.075 147.219 325.724 146.818 325.272 146.524C324.825 146.23 324.307 146.083 323.719 146.083C323.097 146.083 322.549 146.249 322.076 146.582C321.603 146.914 321.232 147.353 320.964 147.898C320.7 148.444 320.566 149.04 320.561 149.688V150.289C320.561 151.069 320.695 151.751 320.964 152.335C321.237 152.914 321.622 153.364 322.121 153.683C322.619 154.003 323.21 154.163 323.892 154.163C324.356 154.163 324.763 154.09 325.112 153.945C325.466 153.8 325.762 153.607 326.001 153.364C326.244 153.116 326.427 152.846 326.551 152.552L327.631 152.903C327.482 153.317 327.237 153.698 326.896 154.048C326.559 154.397 326.137 154.678 325.63 154.891C325.127 155.1 324.548 155.205 323.892 155.205ZM334.421 145.182V146.173H329.595V145.182H334.421ZM331.103 155V143.744C331.103 143.215 331.225 142.77 331.468 142.408C331.715 142.045 332.037 141.771 332.433 141.583C332.829 141.396 333.249 141.302 333.692 141.302C333.99 141.302 334.238 141.327 334.434 141.379C334.634 141.425 334.792 141.472 334.907 141.519L334.574 142.516C334.489 142.491 334.385 142.461 334.261 142.427C334.137 142.393 333.982 142.376 333.794 142.376C333.3 142.376 332.919 142.514 332.65 142.791C332.382 143.068 332.248 143.464 332.248 143.98L332.241 155H331.103ZM336.704 155V145.182H337.849V155H336.704ZM337.286 143.494C337.052 143.494 336.851 143.415 336.685 143.258C336.519 143.096 336.436 142.902 336.436 142.676C336.436 142.45 336.519 142.259 336.685 142.101C336.851 141.939 337.052 141.858 337.286 141.858C337.52 141.858 337.721 141.939 337.887 142.101C338.053 142.259 338.136 142.45 338.136 142.676C338.136 142.902 338.053 143.096 337.887 143.258C337.721 143.415 337.52 143.494 337.286 143.494ZM341.995 148.864V155H340.858V145.182H341.963V146.722H342.066C342.296 146.219 342.654 145.817 343.14 145.514C343.63 145.207 344.235 145.054 344.955 145.054C345.615 145.054 346.195 145.192 346.694 145.469C347.196 145.742 347.586 146.145 347.863 146.678C348.145 147.21 348.285 147.864 348.285 148.64V155H347.147V148.71C347.147 147.905 346.922 147.268 346.47 146.799C346.022 146.33 345.422 146.096 344.667 146.096C344.152 146.096 343.694 146.207 343.293 146.428C342.892 146.65 342.575 146.969 342.341 147.387C342.11 147.8 341.995 148.293 341.995 148.864ZM355.251 155.205C354.335 155.205 353.542 154.991 352.873 154.565C352.204 154.135 351.686 153.54 351.32 152.782C350.958 152.019 350.776 151.141 350.776 150.148C350.776 149.16 350.958 148.282 351.32 147.515C351.686 146.744 352.191 146.141 352.835 145.706C353.482 145.267 354.23 145.048 355.078 145.048C355.611 145.048 356.124 145.146 356.619 145.342C357.113 145.533 357.556 145.83 357.948 146.23C358.345 146.626 358.658 147.127 358.888 147.732C359.118 148.333 359.233 149.045 359.233 149.867V150.43H351.563V149.426H358.07C358.07 148.795 357.942 148.229 357.686 147.726C357.435 147.219 357.083 146.818 356.632 146.524C356.184 146.23 355.666 146.083 355.078 146.083C354.456 146.083 353.909 146.249 353.436 146.582C352.963 146.914 352.592 147.353 352.323 147.898C352.059 148.444 351.925 149.04 351.921 149.688V150.289C351.921 151.069 352.055 151.751 352.323 152.335C352.596 152.914 352.982 153.364 353.48 153.683C353.979 154.003 354.569 154.163 355.251 154.163C355.715 154.163 356.122 154.09 356.472 153.945C356.825 153.8 357.122 153.607 357.36 153.364C357.603 153.116 357.786 152.846 357.91 152.552L358.99 152.903C358.841 153.317 358.596 153.698 358.255 154.048C357.919 154.397 357.497 154.678 356.99 154.891C356.487 155.1 355.907 155.205 355.251 155.205Z" fill="white"/>
<path fill-rule="evenodd" clip-rule="evenodd" d="M537.417 24.1133C565.283 21.61 575.064 61.2341 596.509 79.2382C622.308 100.897 667.223 105.332 673.598 138.445C680.166 172.558 649.538 201.651 624.758 225.954C600.318 249.922 571.616 272.09 537.417 272C503.283 271.909 465.85 256.056 450.536 225.492C436.677 197.832 462.3 168.284 470.5 138.445C475.32 120.906 478.864 104.673 488.048 88.9815C502.32 64.5973 509.316 26.6376 537.417 24.1133Z" stroke="#AEC2B4" stroke-width="2"/>
<path d="M537.434 141.909V155H536.239V141.909H537.434ZM544.213 155.205C543.407 155.205 542.702 154.991 542.097 154.565C541.492 154.139 541.019 153.545 540.678 152.782C540.341 152.019 540.173 151.131 540.173 150.116C540.173 149.107 540.341 148.222 540.678 147.464C541.019 146.701 541.494 146.109 542.103 145.687C542.713 145.261 543.422 145.048 544.232 145.048C544.828 145.048 545.325 145.154 545.721 145.367C546.118 145.576 546.435 145.836 546.674 146.147C546.912 146.458 547.098 146.761 547.23 147.055H547.332V141.909H548.476V155H547.364V153.178H547.23C547.098 153.477 546.91 153.783 546.667 154.099C546.424 154.41 546.103 154.672 545.702 154.885C545.306 155.098 544.809 155.205 544.213 155.205ZM544.347 154.163C544.982 154.163 545.523 153.99 545.971 153.645C546.418 153.295 546.759 152.816 546.993 152.207C547.232 151.593 547.351 150.89 547.351 150.097C547.351 149.313 547.234 148.621 547 148.02C546.765 147.415 546.424 146.942 545.977 146.601C545.529 146.256 544.986 146.083 544.347 146.083C543.691 146.083 543.137 146.262 542.685 146.62C542.238 146.974 541.897 147.453 541.662 148.058C541.432 148.663 541.317 149.343 541.317 150.097C541.317 150.86 541.434 151.548 541.669 152.162C541.903 152.776 542.244 153.263 542.691 153.626C543.143 153.984 543.695 154.163 544.347 154.163ZM555.686 155.205C554.77 155.205 553.978 154.991 553.309 154.565C552.64 154.135 552.122 153.54 551.755 152.782C551.393 152.019 551.212 151.141 551.212 150.148C551.212 149.16 551.393 148.282 551.755 147.515C552.122 146.744 552.627 146.141 553.27 145.706C553.918 145.267 554.666 145.048 555.514 145.048C556.047 145.048 556.56 145.146 557.054 145.342C557.549 145.533 557.992 145.83 558.384 146.23C558.78 146.626 559.093 147.127 559.324 147.732C559.554 148.333 559.669 149.045 559.669 149.867V150.43H551.998V149.426H558.505C558.505 148.795 558.377 148.229 558.122 147.726C557.87 147.219 557.519 146.818 557.067 146.524C556.62 146.23 556.102 146.083 555.514 146.083C554.892 146.083 554.344 146.249 553.871 146.582C553.398 146.914 553.027 147.353 552.759 147.898C552.495 148.444 552.36 149.04 552.356 149.688V150.289C552.356 151.069 552.49 151.751 552.759 152.335C553.032 152.914 553.417 153.364 553.916 153.683C554.414 154.003 555.005 154.163 555.686 154.163C556.151 154.163 556.558 154.09 556.907 153.945C557.261 153.8 557.557 153.607 557.796 153.364C558.039 153.116 558.222 152.846 558.346 152.552L559.426 152.903C559.277 153.317 559.032 153.698 558.691 154.048C558.354 154.397 557.932 154.678 557.425 154.891C556.922 155.1 556.343 155.205 555.686 155.205ZM564.918 155.224C564.326 155.224 563.785 155.109 563.295 154.879C562.805 154.644 562.415 154.308 562.125 153.869C561.835 153.425 561.69 152.888 561.69 152.258C561.69 151.772 561.782 151.363 561.965 151.031C562.148 150.698 562.408 150.425 562.745 150.212C563.081 149.999 563.48 149.831 563.94 149.707C564.4 149.584 564.907 149.488 565.461 149.42C566.011 149.352 566.476 149.292 566.855 149.241C567.238 149.19 567.53 149.109 567.731 148.998C567.931 148.887 568.031 148.708 568.031 148.461V148.231C568.031 147.562 567.831 147.036 567.43 146.652C567.034 146.264 566.463 146.07 565.717 146.07C565.01 146.07 564.432 146.226 563.985 146.537C563.542 146.848 563.231 147.214 563.052 147.636L561.971 147.246C562.193 146.71 562.5 146.281 562.892 145.962C563.284 145.638 563.723 145.406 564.209 145.265C564.694 145.12 565.187 145.048 565.685 145.048C566.06 145.048 566.45 145.097 566.855 145.195C567.264 145.293 567.643 145.463 567.993 145.706C568.342 145.945 568.626 146.279 568.843 146.71C569.06 147.136 569.169 147.677 569.169 148.333V155H568.031V153.447H567.961C567.824 153.737 567.622 154.018 567.354 154.29C567.085 154.563 566.748 154.787 566.344 154.962C565.939 155.136 565.464 155.224 564.918 155.224ZM565.072 154.182C565.677 154.182 566.201 154.048 566.644 153.779C567.087 153.511 567.428 153.155 567.667 152.712C567.91 152.264 568.031 151.772 568.031 151.235V149.816C567.946 149.897 567.803 149.969 567.603 150.033C567.407 150.097 567.179 150.155 566.919 150.206C566.663 150.253 566.407 150.293 566.152 150.327C565.896 150.362 565.666 150.391 565.461 150.417C564.907 150.485 564.434 150.592 564.042 150.737C563.65 150.881 563.35 151.082 563.141 151.337C562.932 151.589 562.828 151.913 562.828 152.309C562.828 152.906 563.041 153.368 563.467 153.696C563.893 154.02 564.428 154.182 565.072 154.182ZM576.063 145.182V146.173H571.377V145.182H576.063ZM572.841 142.83H573.985V152.437C573.985 152.846 574.056 153.168 574.196 153.402C574.337 153.632 574.52 153.796 574.746 153.894C574.972 153.988 575.213 154.035 575.468 154.035C575.617 154.035 575.745 154.026 575.852 154.009C575.958 153.988 576.052 153.967 576.133 153.945L576.376 154.974C576.265 155.017 576.129 155.055 575.967 155.089C575.805 155.128 575.605 155.147 575.366 155.147C574.948 155.147 574.546 155.055 574.158 154.872C573.774 154.689 573.459 154.416 573.212 154.054C572.965 153.692 572.841 153.242 572.841 152.705V142.83ZM582.511 155.205C581.594 155.205 580.802 154.991 580.133 154.565C579.464 154.135 578.946 153.54 578.58 152.782C578.217 152.019 578.036 151.141 578.036 150.148C578.036 149.16 578.217 148.282 578.58 147.515C578.946 146.744 579.451 146.141 580.094 145.706C580.742 145.267 581.49 145.048 582.338 145.048C582.871 145.048 583.384 145.146 583.879 145.342C584.373 145.533 584.816 145.83 585.208 146.23C585.604 146.626 585.918 147.127 586.148 147.732C586.378 148.333 586.493 149.045 586.493 149.867V150.43H578.822V149.426H585.33C585.33 148.795 585.202 148.229 584.946 147.726C584.695 147.219 584.343 146.818 583.891 146.524C583.444 146.23 582.926 146.083 582.338 146.083C581.716 146.083 581.168 146.249 580.695 146.582C580.222 146.914 579.852 147.353 579.583 147.898C579.319 148.444 579.185 149.04 579.18 149.688V150.289C579.18 151.069 579.315 151.751 579.583 152.335C579.856 152.914 580.241 153.364 580.74 153.683C581.239 154.003 581.829 154.163 582.511 154.163C582.975 154.163 583.382 154.09 583.732 153.945C584.085 153.8 584.381 153.607 584.62 153.364C584.863 153.116 585.046 152.846 585.17 152.552L586.25 152.903C586.101 153.317 585.856 153.698 585.515 154.048C585.178 154.397 584.756 154.678 584.249 154.891C583.746 155.1 583.167 155.205 582.511 155.205Z" fill="white"/>
<path fill-rule="evenodd" clip-rule="evenodd" d="M789.011 73.3548C811.938 77.3345 835.896 67.1529 855.917 79.0492C881.869 94.4696 907.589 116.19 911.586 146.188C915.917 178.69 904.958 217.809 876.57 234.051C849.681 249.436 819.903 214.379 789.011 216.321C753.21 218.572 715.698 270.648 689.748 245.796C664.023 221.16 714.98 181.862 715.779 146.188C716.538 112.35 670.16 74.7895 694.117 50.9637C718.109 27.1019 755.726 67.577 789.011 73.3548Z" stroke="#AEC2B4" stroke-width="2" stroke-dasharray="3 5 7 9"/>
<path d="M758.239 154.5V141.409H762.464C763.393 141.409 764.168 141.588 764.79 141.946C765.417 142.3 765.888 142.781 766.203 143.391C766.523 144 766.683 144.686 766.683 145.449C766.683 146.212 766.525 146.9 766.21 147.513C765.894 148.123 765.425 148.607 764.803 148.964C764.181 149.318 763.408 149.495 762.483 149.495H759.159V148.421H762.451C763.137 148.421 763.706 148.293 764.158 148.038C764.609 147.778 764.946 147.424 765.168 146.977C765.393 146.529 765.506 146.02 765.506 145.449C765.506 144.878 765.393 144.369 765.168 143.921C764.946 143.474 764.607 143.122 764.151 142.866C763.7 142.611 763.126 142.483 762.432 142.483H759.434V154.5H758.239ZM769.252 154.5V144.682H770.358V146.19H770.441C770.637 145.696 770.978 145.298 771.464 144.995C771.954 144.688 772.508 144.535 773.126 144.535C773.219 144.535 773.324 144.537 773.439 144.541C773.554 144.545 773.65 144.55 773.727 144.554V145.711C773.675 145.702 773.586 145.69 773.458 145.673C773.33 145.656 773.192 145.647 773.043 145.647C772.531 145.647 772.075 145.756 771.675 145.973C771.278 146.186 770.965 146.482 770.735 146.862C770.505 147.241 770.39 147.673 770.39 148.159V154.5H769.252ZM779.185 154.705C778.337 154.705 777.587 154.489 776.935 154.059C776.288 153.629 775.781 153.034 775.414 152.276C775.048 151.513 774.864 150.633 774.864 149.636C774.864 148.63 775.048 147.746 775.414 146.983C775.781 146.216 776.288 145.619 776.935 145.193C777.587 144.763 778.337 144.548 779.185 144.548C780.033 144.548 780.781 144.763 781.429 145.193C782.077 145.624 782.584 146.22 782.95 146.983C783.321 147.746 783.506 148.63 783.506 149.636C783.506 150.633 783.323 151.513 782.957 152.276C782.59 153.034 782.081 153.629 781.429 154.059C780.781 154.489 780.033 154.705 779.185 154.705ZM779.185 153.663C779.867 153.663 780.445 153.479 780.918 153.113C781.391 152.746 781.749 152.259 781.991 151.649C782.239 151.04 782.362 150.369 782.362 149.636C782.362 148.903 782.239 148.229 781.991 147.616C781.749 147.002 781.391 146.51 780.918 146.139C780.445 145.768 779.867 145.583 779.185 145.583C778.508 145.583 777.93 145.768 777.453 146.139C776.98 146.51 776.62 147.002 776.373 147.616C776.13 148.229 776.009 148.903 776.009 149.636C776.009 150.369 776.13 151.04 776.373 151.649C776.62 152.259 776.98 152.746 777.453 153.113C777.926 153.479 778.504 153.663 779.185 153.663ZM789.871 144.682V145.673H785.186V144.682H789.871ZM786.65 142.33H787.794V151.937C787.794 152.346 787.864 152.668 788.005 152.902C788.145 153.132 788.329 153.296 788.555 153.394C788.78 153.488 789.021 153.535 789.277 153.535C789.426 153.535 789.554 153.526 789.66 153.509C789.767 153.488 789.861 153.467 789.942 153.445L790.184 154.474C790.074 154.517 789.937 154.555 789.775 154.589C789.613 154.628 789.413 154.647 789.175 154.647C788.757 154.647 788.354 154.555 787.966 154.372C787.583 154.189 787.268 153.916 787.02 153.554C786.773 153.192 786.65 152.742 786.65 152.205V142.33ZM796.166 154.705C795.318 154.705 794.568 154.489 793.916 154.059C793.268 153.629 792.761 153.034 792.395 152.276C792.028 151.513 791.845 150.633 791.845 149.636C791.845 148.63 792.028 147.746 792.395 146.983C792.761 146.216 793.268 145.619 793.916 145.193C794.568 144.763 795.318 144.548 796.166 144.548C797.014 144.548 797.762 144.763 798.409 145.193C799.057 145.624 799.564 146.22 799.931 146.983C800.301 147.746 800.487 148.63 800.487 149.636C800.487 150.633 800.304 151.513 799.937 152.276C799.571 153.034 799.061 153.629 798.409 154.059C797.762 154.489 797.014 154.705 796.166 154.705ZM796.166 153.663C796.848 153.663 797.425 153.479 797.898 153.113C798.371 152.746 798.729 152.259 798.972 151.649C799.219 151.04 799.343 150.369 799.343 149.636C799.343 148.903 799.219 148.229 798.972 147.616C798.729 147.002 798.371 146.51 797.898 146.139C797.425 145.768 796.848 145.583 796.166 145.583C795.488 145.583 794.911 145.768 794.434 146.139C793.961 146.51 793.6 147.002 793.353 147.616C793.11 148.229 792.989 148.903 792.989 149.636C792.989 150.369 793.11 151.04 793.353 151.649C793.6 152.259 793.961 152.746 794.434 153.113C794.907 153.479 795.484 153.663 796.166 153.663ZM806.852 144.682V145.673H802.166V144.682H806.852ZM803.63 142.33H804.774V151.937C804.774 152.346 804.845 152.668 804.985 152.902C805.126 153.132 805.309 153.296 805.535 153.394C805.761 153.488 806.002 153.535 806.257 153.535C806.406 153.535 806.534 153.526 806.641 153.509C806.747 153.488 806.841 153.467 806.922 153.445L807.165 154.474C807.054 154.517 806.918 154.555 806.756 154.589C806.594 154.628 806.394 154.647 806.155 154.647C805.737 154.647 805.335 154.555 804.947 154.372C804.563 154.189 804.248 153.916 804.001 153.554C803.754 153.192 803.63 152.742 803.63 152.205V142.33ZM810.228 158.182C810.002 158.182 809.792 158.161 809.596 158.118C809.4 158.075 809.244 158.028 809.129 157.977L809.436 156.974C809.824 157.093 810.169 157.136 810.471 157.102C810.774 157.072 811.042 156.935 811.277 156.692C811.511 156.454 811.72 156.087 811.903 155.593L812.261 154.596L808.65 144.682H809.883L812.798 152.998H812.887L815.802 144.682H817.036L812.881 156.053C812.706 156.526 812.491 156.92 812.235 157.236C811.98 157.555 811.684 157.792 811.347 157.945C811.015 158.103 810.642 158.182 810.228 158.182ZM819.262 158.182V144.682H820.368V146.555H820.502C820.638 146.261 820.826 145.96 821.064 145.653C821.303 145.342 821.618 145.08 822.01 144.867C822.407 144.654 822.905 144.548 823.506 144.548C824.316 144.548 825.023 144.761 825.628 145.187C826.238 145.609 826.711 146.201 827.047 146.964C827.388 147.722 827.559 148.607 827.559 149.616C827.559 150.631 827.388 151.519 827.047 152.282C826.711 153.045 826.238 153.639 825.628 154.065C825.023 154.491 824.32 154.705 823.519 154.705C822.927 154.705 822.43 154.598 822.03 154.385C821.633 154.172 821.312 153.91 821.064 153.599C820.822 153.283 820.634 152.977 820.502 152.678H820.4V158.182H819.262ZM820.387 149.597C820.387 150.39 820.504 151.093 820.738 151.707C820.977 152.316 821.318 152.795 821.761 153.145C822.209 153.49 822.75 153.663 823.385 153.663C824.037 153.663 824.586 153.484 825.034 153.126C825.486 152.763 825.829 152.276 826.063 151.662C826.302 151.048 826.421 150.36 826.421 149.597C826.421 148.843 826.304 148.163 826.069 147.558C825.839 146.953 825.498 146.474 825.047 146.12C824.595 145.762 824.041 145.583 823.385 145.583C822.746 145.583 822.202 145.756 821.755 146.101C821.307 146.442 820.966 146.915 820.732 147.52C820.502 148.121 820.387 148.813 820.387 149.597ZM834.024 154.705C833.108 154.705 832.316 154.491 831.646 154.065C830.977 153.635 830.46 153.04 830.093 152.282C829.731 151.519 829.55 150.641 829.55 149.648C829.55 148.66 829.731 147.782 830.093 147.015C830.46 146.244 830.965 145.641 831.608 145.206C832.256 144.767 833.004 144.548 833.852 144.548C834.384 144.548 834.898 144.646 835.392 144.842C835.887 145.033 836.33 145.33 836.722 145.73C837.118 146.126 837.431 146.627 837.661 147.232C837.892 147.833 838.007 148.545 838.007 149.367V149.93H830.336V148.926H836.843C836.843 148.295 836.715 147.729 836.46 147.226C836.208 146.719 835.857 146.318 835.405 146.024C834.958 145.73 834.44 145.583 833.852 145.583C833.23 145.583 832.682 145.749 832.209 146.082C831.736 146.414 831.365 146.853 831.097 147.398C830.833 147.944 830.698 148.54 830.694 149.188V149.789C830.694 150.569 830.828 151.251 831.097 151.835C831.369 152.414 831.755 152.864 832.254 153.183C832.752 153.503 833.343 153.663 834.024 153.663C834.489 153.663 834.896 153.59 835.245 153.445C835.599 153.3 835.895 153.107 836.134 152.864C836.377 152.616 836.56 152.346 836.683 152.052L837.764 152.403C837.615 152.817 837.369 153.198 837.029 153.548C836.692 153.897 836.27 154.178 835.763 154.391C835.26 154.6 834.681 154.705 834.024 154.705Z" fill="white"/>
<path fill-rule="evenodd" clip-rule="evenodd" d="M1119.28 140.276C1121.17 169.742 1127.26 204.568 1105.33 224.336C1083.68 243.863 1050.41 226.844 1021.31 228.607C988.417 230.601 947.002 260.941 926.443 235.18C905.267 208.645 947.211 174.038 950.816 140.276C953.642 113.805 927.996 84.3708 944.753 63.6895C961.611 42.883 994.54 52.7987 1021.31 53.274C1047.3 53.7357 1075.75 49.0928 1095.19 66.3611C1115.33 84.2453 1117.55 113.392 1119.28 140.276Z" stroke="#AEC2B4" stroke-width="2"/>
<path d="M1003.45 142.483V141.409H1012.94V142.483H1008.79V154.5H1007.59V142.483H1003.45ZM1017.94 154.705C1017.02 154.705 1016.23 154.491 1015.56 154.065C1014.89 153.635 1014.37 153.04 1014.01 152.282C1013.64 151.519 1013.46 150.641 1013.46 149.648C1013.46 148.66 1013.64 147.782 1014.01 147.015C1014.37 146.244 1014.88 145.641 1015.52 145.206C1016.17 144.767 1016.92 144.548 1017.77 144.548C1018.3 144.548 1018.81 144.646 1019.31 144.842C1019.8 145.033 1020.24 145.33 1020.64 145.73C1021.03 146.126 1021.35 146.627 1021.58 147.232C1021.81 147.833 1021.92 148.545 1021.92 149.367V149.93H1014.25V148.926H1020.76C1020.76 148.295 1020.63 147.729 1020.37 147.226C1020.12 146.719 1019.77 146.318 1019.32 146.024C1018.87 145.73 1018.35 145.583 1017.77 145.583C1017.14 145.583 1016.6 145.749 1016.12 146.082C1015.65 146.414 1015.28 146.853 1015.01 147.398C1014.75 147.944 1014.61 148.54 1014.61 149.188V149.789C1014.61 150.569 1014.74 151.251 1015.01 151.835C1015.28 152.414 1015.67 152.864 1016.17 153.183C1016.67 153.503 1017.26 153.663 1017.94 153.663C1018.4 153.663 1018.81 153.59 1019.16 153.445C1019.51 153.3 1019.81 153.107 1020.05 152.864C1020.29 152.616 1020.47 152.346 1020.6 152.052L1021.68 152.403C1021.53 152.817 1021.28 153.198 1020.94 153.548C1020.61 153.897 1020.18 154.178 1019.68 154.391C1019.17 154.6 1018.59 154.705 1017.94 154.705ZM1031.02 146.836L1029.98 147.13C1029.88 146.836 1029.74 146.57 1029.55 146.331C1029.36 146.092 1029.12 145.903 1028.81 145.762C1028.51 145.621 1028.14 145.551 1027.7 145.551C1027.04 145.551 1026.49 145.709 1026.06 146.024C1025.64 146.339 1025.42 146.746 1025.42 147.245C1025.42 147.667 1025.57 148.01 1025.86 148.274C1026.15 148.534 1026.61 148.741 1027.21 148.894L1028.7 149.259C1029.52 149.459 1030.14 149.776 1030.54 150.211C1030.96 150.646 1031.17 151.191 1031.17 151.847C1031.17 152.401 1031.01 152.893 1030.7 153.324C1030.4 153.754 1029.97 154.093 1029.42 154.34C1028.87 154.583 1028.24 154.705 1027.52 154.705C1026.56 154.705 1025.77 154.489 1025.15 154.059C1024.53 153.624 1024.13 152.998 1023.95 152.18L1025.05 151.911C1025.19 152.495 1025.46 152.936 1025.87 153.234C1026.29 153.533 1026.83 153.682 1027.5 153.682C1028.26 153.682 1028.86 153.513 1029.31 153.177C1029.76 152.836 1029.99 152.41 1029.99 151.898C1029.99 151.502 1029.86 151.17 1029.59 150.901C1029.33 150.629 1028.93 150.428 1028.39 150.3L1026.79 149.917C1025.93 149.712 1025.3 149.388 1024.89 148.945C1024.49 148.502 1024.28 147.952 1024.28 147.296C1024.28 146.755 1024.43 146.28 1024.72 145.871C1025.02 145.457 1025.42 145.134 1025.94 144.899C1026.45 144.665 1027.04 144.548 1027.7 144.548C1028.6 144.548 1029.32 144.752 1029.85 145.161C1030.4 145.566 1030.79 146.124 1031.02 146.836ZM1037.52 144.682V145.673H1032.84V144.682H1037.52ZM1034.3 142.33H1035.45V151.937C1035.45 152.346 1035.52 152.668 1035.66 152.902C1035.8 153.132 1035.98 153.296 1036.21 153.394C1036.43 153.488 1036.67 153.535 1036.93 153.535C1037.08 153.535 1037.21 153.526 1037.31 153.509C1037.42 153.488 1037.51 153.467 1037.59 153.445L1037.84 154.474C1037.73 154.517 1037.59 154.555 1037.43 154.589C1037.27 154.628 1037.07 154.647 1036.83 154.647C1036.41 154.647 1036.01 154.555 1035.62 154.372C1035.24 154.189 1034.92 153.916 1034.67 153.554C1034.43 153.192 1034.3 152.742 1034.3 152.205V142.33Z" fill="white"/>
</svg>
