<svg width="32" height="32" viewBox="0 0 32 32" fill="none" xmlns="http://www.w3.org/2000/svg">
<path fill-rule="evenodd" clip-rule="evenodd" d="M13.1832 0.551628C17.373 0.109238 21.2543 2.57298 24.328 5.52511C27.5202 8.59104 30.1574 12.4668 30.2567 16.9498C30.3578 21.5157 28.2987 26.0195 24.8457 28.9053C21.6553 31.5716 17.254 31.8441 13.1832 31.2187C9.71533 30.6859 6.78674 28.5664 4.56074 25.7888C2.56565 23.2994 1.826 20.1706 1.74768 16.9498C1.66677 13.6229 2.23184 10.3662 4.11983 7.65882C6.41942 4.36129 9.24983 0.96694 13.1832 0.551628Z" fill="#111111"/>
<path d="M14.9929 24.0602H15.8067C15.9423 23.227 16.3104 22.3164 16.9304 21.3283C18.1704 19.3714 20.6698 17.4533 22.8204 17.0077V16.1939C21.7548 15.9614 20.7086 15.477 19.7011 14.7602C17.6473 13.3071 16.1361 11.1371 15.8067 9.18018H14.9929C14.7992 10.2071 14.3536 11.1952 13.6561 12.2027C12.2804 14.1983 10.1298 15.6708 7.94043 16.1939V17.0077C9.04481 17.2402 10.1686 17.7827 11.2729 18.6158C13.5204 20.3014 14.7023 22.3939 14.9929 24.0602Z" fill="#EAEAE7"/>
<path d="M4.18079 27.0234L6.41775 25.4139L8.65471 27.0234L7.80903 24.4591L9.85503 23.0678H7.31799L6.41775 20.3398L5.51751 23.0678H2.98047L5.02647 24.4591L4.18079 27.0234Z" fill="#EAEAE7"/>
<path d="M24.6607 11.3984C24.0859 11.3984 23.566 11.2692 23.101 11.0109C22.636 10.7526 22.2647 10.4038 21.987 9.96465C21.7157 9.51902 21.5801 9.02173 21.5801 8.47277C21.5801 7.91736 21.7157 7.41361 21.987 6.96152C22.2647 6.50298 22.636 6.13809 23.101 5.86683C23.566 5.59559 24.0859 5.45996 24.6607 5.45996C25.242 5.45996 25.7618 5.59559 26.2204 5.86683C26.6854 6.13809 27.0503 6.50298 27.3151 6.96152C27.5863 7.41361 27.722 7.91736 27.722 8.47277C27.722 9.02173 27.5863 9.51902 27.3151 9.96465C27.0503 10.4038 26.6854 10.7526 26.2204 11.0109C25.7618 11.2692 25.242 11.3984 24.6607 11.3984ZM24.6607 10.2165C25.1709 10.2165 25.5939 10.0389 25.9298 9.68371C26.2656 9.3285 26.4335 8.92486 26.4335 8.47277C26.4335 8.00132 26.2656 7.58475 25.9298 7.22309C25.5939 6.85496 25.1709 6.6709 24.6607 6.6709C24.1505 6.6709 23.7275 6.85496 23.3916 7.22309C23.0623 7.58475 22.8976 8.00132 22.8976 8.47277C22.8976 8.93131 23.0655 9.33819 23.4013 9.6934C23.7372 10.0421 24.157 10.2165 24.6607 10.2165Z" fill="#EAEAE7"/>
</svg>
