<svg width="276" height="234" viewBox="0 0 276 234" fill="none" xmlns="http://www.w3.org/2000/svg">
<path opacity="0.3" d="M172.82 -9.02024e-06C177.965 -8.57051e-06 183.109 3.5135 188.254 10.5405C193.398 17.5675 195.97 25.7658 195.97 35.1351C195.97 35.6036 195.736 37.009 195.269 39.3513C194.333 41.6937 192.696 46.3783 190.358 53.4054C184.278 72.1441 180.069 85.964 177.731 94.8648C175.393 103.766 174.223 110.559 174.223 115.243C178.432 112.432 184.045 107.514 191.06 100.486C198.075 93.9279 208.129 83.3874 221.224 68.8649C225.901 63.7117 228.941 60.4324 230.344 59.027C231.747 57.6216 232.682 56.6847 233.15 56.2162C241.1 51.5315 249.284 49.6576 257.702 50.5946C266.121 51.5315 271.733 54.1081 274.539 58.3243C276.877 63.4775 276.409 69.8018 273.136 77.2973C269.394 85.2613 263.548 91.3514 255.598 95.5676C255.13 96.0361 253.727 96.5045 251.389 96.973C248.583 97.4414 243.205 98.6126 235.254 100.486C216.548 104.703 202.985 107.982 194.567 110.324C186.149 112.667 180.069 115.009 176.328 117.351C181.005 119.694 187.786 122.036 196.672 124.378C205.09 127.189 218.184 130.468 235.956 134.216C243.906 136.09 249.051 137.261 251.389 137.73C253.727 138.198 255.13 138.667 255.598 139.135C263.548 143.351 269.394 149.207 273.136 156.703C276.409 164.667 276.877 170.991 274.539 175.676C271.265 180.36 265.653 182.937 257.702 183.405C249.284 184.342 241.1 182.468 233.15 177.784C232.682 177.315 231.513 176.144 229.642 174.27C227.772 172.865 224.03 169.117 218.418 163.027C205.791 148.505 196.204 138.198 189.657 132.108C183.109 126.018 177.965 122.036 174.223 120.162C174.691 125.315 176.094 132.108 178.432 140.541C180.303 149.441 184.278 162.559 190.358 179.892C192.696 187.387 194.333 192.306 195.269 194.649C195.736 196.991 195.97 198.631 195.97 199.568C195.97 208.937 193.632 216.901 188.955 223.459C183.811 230.486 178.432 234 172.82 234C167.676 234 162.766 230.486 158.089 223.459C152.944 216.901 150.372 208.937 150.372 199.568C150.372 198.631 150.84 196.757 151.775 193.946C152.243 191.604 153.88 186.216 156.686 177.784C162.298 159.982 166.273 146.865 168.611 138.432C170.482 130.468 171.417 124.378 171.417 120.162C167.208 122.973 161.596 127.658 154.581 134.216C147.566 140.775 137.745 151.081 125.118 165.135C120.441 170.288 117.402 173.568 115.999 174.973C114.596 176.378 113.66 177.315 113.193 177.784C105.242 182.468 97.058 184.342 88.64 183.405C80.2219 182.937 74.6099 180.36 71.8039 175.676C68.9979 170.991 69.4655 164.901 73.2069 157.405C76.9482 149.91 82.7941 143.82 90.7445 139.135C91.2122 138.667 92.849 138.198 95.655 137.73C97.9934 137.261 102.904 136.09 110.387 134.216C128.158 130.468 141.487 127.189 150.372 124.378C158.79 122.036 165.338 119.694 170.014 117.351C165.338 115.009 158.79 112.432 150.372 109.622C141.954 107.279 128.86 104.234 111.088 100.486C103.138 98.6126 97.9934 97.4414 95.655 96.9729C92.849 96.5045 91.2122 96.036 90.7445 95.5676C82.7941 90.8829 76.9482 84.5585 73.2069 76.5946C69.4655 69.0991 68.9979 63.009 71.8039 58.3243C74.6099 54.1081 80.2219 51.5315 88.64 50.5946C96.5904 49.6576 104.541 51.5315 112.491 56.2162C112.959 56.6846 114.128 57.8558 115.999 59.7297C117.869 61.6036 121.845 65.5856 127.924 71.6756C140.551 86.1982 150.138 96.5045 156.686 102.595C162.766 108.685 167.676 112.667 171.417 114.541C170.95 109.387 169.781 102.126 167.91 92.7568C165.572 83.8559 161.596 70.7387 155.984 53.4054C153.646 46.3783 152.243 41.6937 151.775 39.3513C150.84 37.009 150.372 35.6036 150.372 35.1351C150.372 25.7658 152.945 17.5675 158.089 10.5405C162.766 3.51349 167.676 -9.46998e-06 172.82 -9.02024e-06Z" fill="#D1D1BC"/>
<path opacity="0.8" d="M102.82 -9.02024e-06C107.965 -8.57051e-06 113.109 3.5135 118.254 10.5405C123.398 17.5675 125.97 25.7658 125.97 35.1351C125.97 35.6036 125.736 37.009 125.269 39.3513C124.333 41.6937 122.696 46.3783 120.358 53.4054C114.278 72.1441 110.069 85.964 107.731 94.8648C105.393 103.766 104.223 110.559 104.223 115.243C108.432 112.432 114.045 107.514 121.06 100.486C128.075 93.9279 138.129 83.3874 151.224 68.8649C155.901 63.7117 158.941 60.4324 160.344 59.027C161.747 57.6216 162.682 56.6847 163.15 56.2162C171.1 51.5315 179.284 49.6576 187.702 50.5946C196.121 51.5315 201.733 54.1081 204.539 58.3243C206.877 63.4775 206.409 69.8018 203.136 77.2973C199.394 85.2613 193.548 91.3514 185.598 95.5676C185.13 96.0361 183.727 96.5045 181.389 96.973C178.583 97.4414 173.205 98.6126 165.254 100.486C146.548 104.703 132.985 107.982 124.567 110.324C116.149 112.667 110.069 115.009 106.328 117.351C111.005 119.694 117.786 122.036 126.672 124.378C135.09 127.189 148.184 130.468 165.956 134.216C173.906 136.09 179.051 137.261 181.389 137.73C183.727 138.198 185.13 138.667 185.598 139.135C193.548 143.351 199.394 149.207 203.136 156.703C206.409 164.667 206.877 170.991 204.539 175.676C201.265 180.36 195.653 182.937 187.702 183.405C179.284 184.342 171.1 182.468 163.15 177.784C162.682 177.315 161.513 176.144 159.642 174.27C157.772 172.865 154.03 169.117 148.418 163.027C135.791 148.505 126.204 138.198 119.657 132.108C113.109 126.018 107.965 122.036 104.223 120.162C104.691 125.315 106.094 132.108 108.432 140.541C110.303 149.441 114.278 162.559 120.358 179.892C122.696 187.387 124.333 192.306 125.269 194.649C125.736 196.991 125.97 198.631 125.97 199.568C125.97 208.937 123.632 216.901 118.955 223.459C113.811 230.486 108.432 234 102.82 234C97.6761 234 92.7656 230.486 88.0889 223.459C82.9445 216.901 80.3723 208.937 80.3723 199.568C80.3723 198.631 80.84 196.757 81.7753 193.946C82.243 191.604 83.8798 186.216 86.6858 177.784C92.2979 159.982 96.2731 146.865 98.6114 138.432C100.482 130.468 101.417 124.378 101.417 120.162C97.2084 122.973 91.5964 127.658 84.5814 134.216C77.5663 140.775 67.7453 151.081 55.1182 165.135C50.4415 170.288 47.4016 173.568 45.9986 174.973C44.5956 176.378 43.6603 177.315 43.1926 177.784C35.2422 182.468 27.058 184.342 18.64 183.405C10.2219 182.937 4.60988 180.36 1.80388 175.676C-1.00215 170.991 -0.534464 164.901 3.20689 157.405C6.94823 149.91 12.7941 143.82 20.7445 139.135C21.2122 138.667 22.849 138.198 25.655 137.73C27.9934 137.261 32.9039 136.09 40.3866 134.216C58.158 130.468 71.4866 127.189 80.3723 124.378C88.7904 122.036 95.3377 119.694 100.014 117.351C95.3377 115.009 88.7904 112.432 80.3723 109.622C71.9543 107.279 58.8595 104.234 41.0881 100.486C33.1377 98.6126 27.9934 97.4414 25.655 96.9729C22.849 96.5045 21.2122 96.036 20.7445 95.5676C12.7941 90.8829 6.94824 84.5585 3.20689 76.5946C-0.534455 69.0991 -1.00214 63.009 1.80389 58.3243C4.60989 54.1081 10.2219 51.5315 18.64 50.5946C26.5904 49.6576 34.5407 51.5315 42.4911 56.2162C42.9588 56.6846 44.128 57.8558 45.9986 59.7297C47.8693 61.6036 51.8445 65.5856 57.9242 71.6756C70.5513 86.1982 80.1385 96.5045 86.6859 102.595C92.7656 108.685 97.6761 112.667 101.417 114.541C100.95 109.387 99.7806 102.126 97.9099 92.7568C95.5716 83.8559 91.5964 70.7387 85.9844 53.4054C83.646 46.3783 82.243 41.6937 81.7753 39.3513C80.84 37.009 80.3723 35.6036 80.3723 35.1351C80.3723 25.7658 82.9445 17.5675 88.0889 10.5405C92.7656 3.51349 97.6761 -9.46998e-06 102.82 -9.02024e-06Z" fill="#D1D1BC"/>
</svg>
