<svg width="255" height="235" viewBox="0 0 255 235" fill="none" xmlns="http://www.w3.org/2000/svg">
<path opacity="0.8" d="M104.34 0.331449C107.862 -0.552414 110.063 0.33144 110.943 2.98308C111.824 5.63472 110.503 7.40248 106.981 8.28635C85.8491 15.3573 67.7988 25.9638 52.8302 40.1058C38.7421 54.2478 31.6981 68.8317 31.6981 83.8576C31.6981 94.4641 35.6604 102.861 43.5849 109.048C51.5094 114.351 67.3585 119.213 91.1321 123.632C109.623 127.167 123.27 133.354 132.075 142.193C141.761 151.032 146.604 162.522 146.604 176.664C146.604 193.458 140.881 207.6 129.434 219.09C117.987 229.697 103.019 235 84.5283 235C59.8742 235 39.6227 226.161 23.7736 208.484C7.92454 190.806 0 168.268 0 140.867C0 107.28 9.68554 78.1124 29.0566 53.3639C48.4277 27.7316 73.522 10.0541 104.34 0.331449Z" fill="#D1D1BC"/>
<path opacity="0.3" d="M219.264 2.98308C218.384 0.33144 216.182 -0.552414 212.66 0.331449C180.962 10.0541 155.428 27.2896 136.057 52.0381C116.686 76.7866 107 105.512 107 138.216C107 165.616 115.365 188.597 132.094 207.158C148.824 225.719 169.075 235 192.849 235C210.459 235 224.987 229.697 236.434 219.09C248.761 207.6 254.925 193.458 254.925 176.664C254.925 162.522 250.082 151.032 240.396 142.193C231.591 133.354 217.503 127.167 198.132 123.632C174.359 119.213 158.509 114.351 150.585 109.048C142.66 102.861 138.698 94.4641 138.698 83.8576C138.698 68.8317 146.182 54.2478 161.151 40.1058C176.119 25.9638 194.17 15.3573 215.302 8.28635C218.824 7.40248 220.145 5.63472 219.264 2.98308Z" fill="#D1D1BC"/>
</svg>
